<svg width="12" height="6" viewBox="0 0 12 6" fill="none" xmlns="http://www.w3.org/2000/svg">
<path d="M10.75 0.000117764L11.75 0.000117776C11.852 0.000117777 11.9441 0.0621333 11.9819 0.156866C11.9941 0.187123 12 0.218857 12 0.250099C12 0.316988 11.9731 0.382424 11.9228 0.430752L6.17294 5.93067C6.07626 6.02295 5.92392 6.02295 5.82724 5.93067L0.0773421 0.430752C0.00360877 0.359948 -0.0203208 0.251551 0.0182572 0.156819C0.0561076 0.062086 0.148146 7.13842e-05 0.250191 7.13855e-05L1.25018 7.13974e-05C1.31414 7.13981e-05 1.37567 0.0244926 1.42205 0.0684375L6.00009 4.40581L10.5781 0.0684609C10.6245 0.0245166 10.686 0.000117763 10.75 0.000117764Z" fill="#333333"/>
</svg>
