<svg width="6" height="8" viewBox="0 0 6 8" fill="none" xmlns="http://www.w3.org/2000/svg">
<path d="M5.22259 3.68784L1.66249 0.127804C1.58015 0.045398 1.47023 0 1.35303 0C1.23583 0 1.12591 0.045398 1.04357 0.127804L0.78139 0.389915C0.610789 0.560711 0.610789 0.838302 0.78139 1.00884L3.7709 3.99834L0.778072 6.99116C0.695732 7.07357 0.650269 7.18342 0.650269 7.30056C0.650269 7.41783 0.695732 7.52768 0.778072 7.61015L1.04025 7.8722C1.12266 7.9546 1.23251 8 1.34971 8C1.46691 8 1.57683 7.9546 1.65917 7.8722L5.22259 4.30891C5.30513 4.22624 5.35046 4.11587 5.3502 3.99854C5.35046 3.88075 5.30513 3.77044 5.22259 3.68784Z" fill="#C4C4C4"/>
</svg>
